<?xml version="1.0" standalone="no"?><!DOCTYPE svg PUBLIC "-//W3C//DTD SVG 1.1//EN" "http://www.w3.org/Graphics/SVG/1.1/DTD/svg11.dtd"><svg t="1605363625762" class="icon" viewBox="0 0 1024 1024" version="1.1" xmlns="http://www.w3.org/2000/svg" p-id="5869" width="24" height="24" xmlns:xlink="http://www.w3.org/1999/xlink"><defs><style type="text/css"></style></defs><path d="M85.333333 512a426.666667 426.666667 0 1 0 853.333334 0 426.666667 426.666667 0 1 0-853.333334 0Z" fill="#008771" p-id="5870"></path><path d="M341.333333 558.933333c0-21.333333 12.8-46.933333 170.666667-46.933333s170.666667 21.333333 170.666667 46.933333c0 93.866667-72.533333 166.4-166.4 166.4h-8.533334C413.866667 725.333333 341.333333 652.8 341.333333 558.933333zM341.333333 384c0 25.6 17.066667 42.666667 42.666667 42.666667s42.666667-17.066667 42.666667-42.666667c0-17.066667-8.533333-29.866667-21.333334-38.4-12.8-4.266667-29.866667-4.266667-42.666666 0-12.8 8.533333-21.333333 21.333333-21.333334 38.4zM597.333333 384c0 17.066667 8.533333 29.866667 21.333334 38.4s29.866667 8.533333 42.666666 0 21.333333-21.333333 21.333334-38.4-8.533333-29.866667-21.333334-38.4-29.866667-8.533333-42.666666 0-21.333333 21.333333-21.333334 38.4z" fill="#FFFFFF" p-id="5871"></path><path d="M187.733333 789.333333c76.8 64 170.666667 102.4 281.6 102.4 234.666667 0 426.666667-192 426.666667-426.666666 0-106.666667-42.666667-200.533333-106.666667-277.333334C883.2 268.8 938.666667 384 938.666667 512c0 234.666667-192 426.666667-426.666667 426.666667-128 0-243.2-55.466667-324.266667-149.333334z" fill="#006E5B" p-id="5872"></path></svg>